<?xml version="1.0" encoding="UTF-8"?>
<svg id="Layer_2" data-name="Layer 2" xmlns="http://www.w3.org/2000/svg" viewBox="0 0 199.78 216">
  <defs>
    <style>
      .cls-1 {
        fill:currentColor;
      }
    </style>
  </defs>
  <g id="Layer_1-2" data-name="Layer 1">
    <g>
      <path class="cls-1" d="M193.48,142.74l-34.84-21.63c-2.02-1.25-4.44-1.69-6.77-1.23l-83.11,16.62c-5.53,1.11-10.78-2.9-11.17-8.53l-3.03-43.71c-.34-4.91-4.42-8.71-9.34-8.71s-8.91,3.72-9.32,8.56l-4.8,55.7c-.25,2.94-1.88,5.59-4.39,7.15l-22.29,13.83c-2.75,1.71-4.42,4.71-4.42,7.95v37.9c0,5.17,4.19,9.36,9.36,9.36h179.19c5.17,0,9.36-4.19,9.36-9.36v-55.95c0-3.24-1.67-6.24-4.42-7.95Z"/>
      <path class="cls-1" d="M46.05,71.15c3.48.43,6.66-.65,9.02-2.64,1.58-1.33,3.86-1.52,5.71-.59.28.14.56.27.85.4,1.3.56,2.34,1.58,2.85,2.91,3.24,8.42,10.88,14.55,19.95,15.76,2.38.32,4.1,2.38,4.25,4.78,0,.02,0,.03,0,.05.84,12.78,11.87,22.47,24.66,21.63,5.14-.34,9.77-2.33,13.42-5.41,1.74-1.48,4.28-1.53,6.14-.19,3.49,2.52,7.86,3.88,12.49,3.58,8.57-.56,15.47-6.67,17.42-14.59.41-1.68,1.72-3.02,3.38-3.48,9.68-2.72,16.47-11.92,15.78-22.37-.18-2.69-.84-5.24-1.89-7.56-1.14-2.51.05-5.42,2.54-6.59,11.7-5.49,19.09-18.31,16.69-32.19C196.93,10.75,184.76.3,170.67,0c-8.5-.18-16.11,3.13-21.61,8.52-1.83,1.8-4.76,1.84-6.71.18-4.68-4-10.87-6.25-17.51-5.81-7.55.49-14.08,4.37-18.21,10.05-1.16,1.6-3.15,2.39-5.08,1.98-2.18-.46-4.46-.63-6.79-.48-10.9.71-19.7,8.31-22.44,18.27-.6,2.19-2.49,3.74-4.76,3.83-.16,0-.31.01-.47.02-5.9.39-10.88,3.82-13.5,8.68-.97,1.79-2.89,2.94-4.91,2.75-.61-.06-1.23-.07-1.86-.03-7.17.47-12.41,7.35-10.49,14.69,1.18,4.5,5.1,7.92,9.72,8.49Z"/>
    </g>
  </g>
</svg>