<?xml version="1.0" encoding="UTF-8"?>
<svg id="Layer_2" data-name="Layer 2" xmlns="http://www.w3.org/2000/svg" viewBox="0 0 214.18 201.7">
  <defs>
    <style>
      .cls-1 {
        fill:currentColor;
      }
    </style>
  </defs>
  <g id="Layer_1-2" data-name="Layer 1">
    <g>
      <path class="cls-1" d="M22,39.84c25.73-8.58,54.08-8.58,79.8,0l.74.25c16.04,5.34,32.88,8.02,49.73,8.02,16.85,0,33.7-2.67,49.74-8.02l.74-.25c8.75-2.92,13.48-12.39,10.56-21.14-2.92-8.75-12.38-13.48-21.14-10.56l-.73.24c-25.26,8.42-53.08,8.42-78.33,0l-.74-.25C79.83-2.71,43.98-2.71,11.43,8.14,2.68,11.06-2.06,20.52.86,29.27c2.92,8.76,12.38,13.49,21.14,10.57Z"/>
      <path class="cls-1" d="M192.18,84.94l-.73.24c-25.26,8.42-53.08,8.42-78.33,0l-.74-.25c-32.55-10.85-68.4-10.85-100.95,0-8.76,2.92-13.49,12.38-10.57,21.14,2.92,8.76,12.38,13.49,21.14,10.57,25.73-8.58,54.08-8.58,79.8,0l.74.25c16.04,5.34,32.88,8.02,49.73,8.02s33.7-2.67,49.74-8.02l.74-.25c8.75-2.92,13.48-12.39,10.56-21.14-2.92-8.75-12.38-13.48-21.14-10.56Z"/>
      <path class="cls-1" d="M192.18,161.74l-.73.24c-25.26,8.42-53.08,8.42-78.33,0l-.74-.25c-32.55-10.85-68.4-10.85-100.95,0-8.76,2.92-13.49,12.38-10.57,21.14,2.92,8.75,12.38,13.49,21.14,10.57,25.73-8.58,54.08-8.58,79.8,0l.74.25c16.04,5.34,32.88,8.02,49.73,8.02s33.7-2.67,49.74-8.02l.74-.25c8.75-2.92,13.48-12.39,10.56-21.14-2.92-8.75-12.38-13.48-21.14-10.56Z"/>
    </g>
  </g>
</svg>