<?xml version="1.0" encoding="UTF-8"?>
<svg id="Layer_2" data-name="Layer 2" xmlns="http://www.w3.org/2000/svg" viewBox="0 0 216 212.03">
  <defs>
    <style>
      .cls-1 {
        fill: #231f20;
      }
    </style>
  </defs>
  <g id="Layer_1-2" data-name="Layer 1">
    <path class="cls-1" d="M101.97,2.58L2.31,89.68c-5.04,5.3-1.29,14.05,6.03,14.05h9.1c4.59,0,8.32,3.72,8.32,8.32v91.66c0,4.59,3.72,8.32,8.32,8.32h35.38c4.59,0,8.32-3.72,8.32-8.32v-60.63c0-4.59,3.72-8.32,8.32-8.32h43.83c4.59,0,8.32,3.72,8.32,8.32v60.63c0,4.59,3.72,8.32,8.32,8.32h35.38c4.59,0,8.32-3.72,8.32-8.32v-91.66c0-4.59,3.72-8.32,8.32-8.32h9.1c7.31,0,11.07-8.76,6.03-14.05L114.03,2.58c-3.28-3.44-8.77-3.44-12.05,0Z"/>
  </g>
</svg>