<?xml version="1.0" encoding="UTF-8"?>
<svg id="Layer_2" data-name="Layer 2" xmlns="http://www.w3.org/2000/svg" viewBox="0 0 216 218.19">
  <defs>
    <style>
      .cls-1 {
        fill: #231f20;
      }
    </style>
  </defs>
  <g id="Layer_1-2" data-name="Layer 1">
    <path class="cls-1" d="M147.66,39.87V6c0-3.31-2.68-6-6-6h-55.1c-3.31,0-6,2.68-6,6v131.24c0,1.77-1.44,3.21-3.21,3.21h-1.89c-1.77,0-3.21-1.44-3.21-3.21v-56.91c0-1.77-1.44-3.21-3.21-3.21h-.71c-1.77,0-3.21-1.44-3.21-3.21v-.63c0-1.77-1.44-3.21-3.21-3.21h-1.11c-1.77,0-3.21-1.44-3.21-3.21v-.63c0-1.77-1.44-3.21-3.21-3.21h-.63c-1.77,0-3.21-1.44-3.21-3.21v-.63c0-1.77-1.44-3.21-3.21-3.21h0c-1.77,0-3.21-1.44-3.21-3.21v-.63c0-1.77-1.44-3.21-3.21-3.21h-9.57c-1.77,0-3.21,1.44-3.21,3.21v.63c0,1.77-1.44,3.21-3.21,3.21h0c-1.77,0-3.21,1.44-3.21,3.21v.63c0,1.77-1.44,3.21-3.21,3.21h-.63c-1.77,0-3.21,1.44-3.21,3.21v.63c0,1.77-1.44,3.21-3.21,3.21h-1.11c-1.77,0-3.21,1.44-3.21,3.21v.63c0,1.77-1.44,3.21-3.21,3.21h-.71c-1.77,0-3.21,1.44-3.21,3.21v131.87c0,3.31,2.68,6,6,6h204.01c3.31,0,6-2.68,6-6V19.72c0-4.49-4.75-7.39-8.75-5.33l-54.92,28.34c-2.14,1.1-4.68-.45-4.68-2.85Z"/>
  </g>
</svg>