<?xml version="1.0" encoding="UTF-8"?>
<svg id="Layer_2" data-name="Layer 2" xmlns="http://www.w3.org/2000/svg" viewBox="0 0 140.29 216">
  <defs>
    <style>
      .cls-1 {
        fill: #231f20;
      }
    </style>
  </defs>
  <g id="Layer_1-2" data-name="Layer 1">
    <path class="cls-1" d="M42.01,149.56c-2.69,0-4.86-2.18-4.86-4.86v-6.67c0-5.88.44-10.62,1.36-14.27.91-3.63,2.74-6.72,5.48-9.23,2.72-2.54,6.81-5.11,12.27-7.75l15.48-7.58c2.62-1.41,6.12-3.48,10.47-6.22,4.35-2.72,8.22-6.52,11.68-11.38,3.43-4.84,5.16-11.01,5.16-18.49,0-8.49-2.64-15.33-7.9-20.49-5.26-5.14-12.32-7.73-21.23-7.73s-16.59,2.64-21.85,7.9c-4.34,4.34-6.88,9.85-7.64,16.53-.28,2.48-2.34,4.38-4.83,4.38H4.87C2.04,63.7-.18,61.3.01,58.48c.68-10.04,3.34-19.17,8-27.4,5.48-9.6,13.46-17.18,23.97-22.74C42.5,2.79,55.24,0,70.2,0c13.75,0,25.9,2.47,36.42,7.43,10.52,4.96,18.76,12.2,24.71,21.7,5.97,9.51,8.96,20.91,8.96,34.27s-3.6,25.23-10.76,35.65c-7.18,10.42-16.34,18.47-27.45,24.12l-21.85,10.91c-3.04,1.43-5.21,2.74-6.52,3.95-1.33,1.21-1.98,3.43-1.98,6.67h0c0,2.69-2.18,4.86-4.86,4.86h-24.86ZM28.95,211.14v-38.81c0-2.69,2.18-4.86,4.86-4.86h42.46c2.69,0,4.86,2.18,4.86,4.86v38.81c0,2.69-2.18,4.86-4.86,4.86h-42.46c-2.69,0-4.86-2.18-4.86-4.86Z"/>
  </g>
</svg>