<?xml version="1.0" encoding="UTF-8"?>
<svg id="Layer_2" data-name="Layer 2" xmlns="http://www.w3.org/2000/svg" viewBox="0 0 216 190.2">
  <defs>
    <style>
      .cls-1 {
        fill: #231f20;
      }
    </style>
  </defs>
  <g id="Layer_1-2" data-name="Layer 1">
    <path class="cls-1" d="M214.4,172.45L118.25,5.92c-4.55-7.89-15.94-7.89-20.49,0L1.6,172.45c-4.55,7.89,1.14,17.75,10.25,17.75h192.3c9.11,0,14.8-9.86,10.25-17.75ZM102.83,46.51h10.32c4.51,0,8.12,3.73,7.97,8.24l-2.33,69.97c-.14,4.3-3.67,7.71-7.97,7.71h-5.81c-4.31,0-7.84-3.42-7.97-7.73l-2.18-69.97c-.14-4.5,3.47-8.22,7.97-8.22ZM123.36,163.57c0,4.4-3.57,7.97-7.97,7.97h-14.78c-4.4,0-7.97-3.57-7.97-7.97v-12.63c0-4.4,3.57-7.97,7.97-7.97h14.78c4.4,0,7.97,3.57,7.97,7.97v12.63Z"/>
  </g>
</svg>