<?xml version="1.0" encoding="UTF-8"?>
<svg id="Layer_2" data-name="Layer 2" xmlns="http://www.w3.org/2000/svg" viewBox="0 0 159.64 216.07">
  <defs>
    <style>
      .cls-1 {
        fill:currentColor;
      }
    </style>
  </defs>
  <g id="Layer_1-2" data-name="Layer 1">
    <path class="cls-1" d="M158.82,178l-25.31-39.31c-2.19-3.4.25-7.88,4.3-7.88h8.26c4.16,0,6.58-4.7,4.16-8.08l-26.54-37.18c-2.42-3.38,0-8.08,4.16-8.08h0c4.16,0,6.58-4.7,4.16-8.08L83.98,2.14c-2.04-2.86-6.28-2.86-8.32,0L27.64,69.39c-2.42,3.38,0,8.08,4.16,8.08h0c4.16,0,6.58,4.7,4.16,8.08l-26.54,37.18c-2.42,3.38,0,8.08,4.16,8.08h8.26c4.05,0,6.49,4.48,4.3,7.88L.82,178c-2.19,3.4.25,7.88,4.3,7.88h45.56c2.82,0,5.11,2.29,5.11,5.11v19.97c0,2.82,2.29,5.11,5.11,5.11h37.82c2.82,0,5.11-2.29,5.11-5.11v-19.97c0-2.82,2.29-5.11,5.11-5.11h45.56c4.05,0,6.49-4.48,4.3-7.88Z"/>
  </g>
</svg>