<?xml version="1.0" encoding="UTF-8"?>
<svg id="Layer_2" data-name="Layer 2" xmlns="http://www.w3.org/2000/svg" viewBox="0 0 216 216">
  <defs>
    <style>
      .cls-1 {
        fill:currentColor;
      }
    </style>
  </defs>
  <g id="Layer_1-2" data-name="Layer 1">
    <path class="cls-1" d="M212.04,192.92l-73.63-73.63c-4.1-4.1-5.16-10.36-2.56-15.54,4.91-9.79,7.65-20.85,7.57-32.54C143.15,32.08,110.91.04,71.78,0,32.18-.04-.04,32.18,0,71.78c.04,39.13,32.08,71.37,71.21,71.64,11.7.08,22.76-2.66,32.54-7.57,5.18-2.6,11.44-1.53,15.54,2.56l73.63,73.63c5.28,5.28,13.84,5.28,19.12,0h0c5.28-5.28,5.28-13.84,0-19.12ZM27.22,75.79c-2.48-27.83,20.74-51.05,48.57-48.57,21.33,1.9,38.51,19.08,40.41,40.41,2.48,27.83-20.74,51.05-48.57,48.57-21.33-1.9-38.51-19.08-40.41-40.41Z"/>
  </g>
</svg>