<?xml version="1.0" encoding="UTF-8"?>
<svg id="Layer_2" data-name="Layer 2" xmlns="http://www.w3.org/2000/svg" viewBox="0 0 214.27 142.94">
  <defs>
    <style>
      .cls-1 {
        fill: #231f20;
      }
    </style>
  </defs>
  <g id="Layer_1-2" data-name="Layer 1">
    <g>
      <path class="cls-1" d="M200.73,81.93c-12.28-15.46-28.32-20.1-36.79-21.49-.29-.05-.57-.07-.84-.07h-10.89c-1.96,0-3.67,1.04-4.7,2.86-1.17,2.08-1.13,4.65.11,6.7l.09.16c5.89,9.8,14.33,31.29,4.59,64.88-.58,1.99-.2,4.15,1.01,5.76,1.06,1.41,2.62,2.21,4.28,2.21h49.99c2.68,0,4.98-2.09,5.47-4.97,2.11-12.48,3.32-36.36-12.32-56.05Z"/>
      <path class="cls-1" d="M148.68,83.79c-.89-2.7-2.17-5.27-3.87-7.55-5.22-7.02-8.59-18.01-8.59-30.36,0-21.2,9.9-38.39,22.12-38.39s22.12,17.19,22.12,38.39c0,4.08-.37,8.01-1.05,11.7-.23,1.27.44,2.52,1.62,3.05l.05.02c1.7.77,3.7-.25,4.03-2.09.74-4.08,1.13-8.39,1.13-12.86,0-25.24-12.57-45.71-28.07-45.71H28.07C12.57,0,0,20.46,0,45.71s12.57,45.71,28.07,45.71h119c1.85,0,3.24-1.74,2.79-3.53-.34-1.37-.74-2.74-1.18-4.1Z"/>
    </g>
  </g>
</svg>