<?xml version="1.0" encoding="UTF-8"?>
<svg id="Layer_2" data-name="Layer 2" xmlns="http://www.w3.org/2000/svg" viewBox="0 0 29.58 26.13">
  <defs>
    <style>
      .cls-1 {
        fill: #231f20;
      }
    </style>
  </defs>
  <g id="Layer_1-2" data-name="Layer 1">
    <g>
      <path class="cls-1" d="M.61,10.2V1.8h1.87l2.99,7.12-.66.08L7.79,1.8h1.86v8.4h-1.56V3.05l.53.36-2.86,6.79h-1.25L1.64,3.41l.53-.36v7.15H.61Z"/>
      <path class="cls-1" d="M13.33,10.2v-2.98l-2.84-5.42h1.78l2.09,4.3h-.44l2.08-4.3h1.75l-2.84,5.42v2.98h-1.56Z"/>
      <path class="cls-1" d="M18.56,10.2V1.8h5.48v1.26h-3.92v2.27h3.56v1.22h-3.56v2.39h3.92v1.26h-5.48Z"/>
      <path class="cls-1" d="M24.61,10.2v-1.39h1.56c.37,0,.63-.11.79-.32.16-.22.23-.5.23-.86V1.8h1.56v5.82c0,.83-.23,1.47-.7,1.91s-1.09.67-1.88.67h-1.56Z"/>
      <path class="cls-1" d="M.71,21.2v-10.5h2.1l4.75,7.12v-7.12h2.1v10.5h-2.1l-4.75-7.1v7.1H.71Z"/>
      <path class="cls-1" d="M14.13,21.2v-3.66l-3.55-6.84h2.38l2.52,5.28h-.56l2.51-5.28h2.35l-3.55,6.84v3.66h-2.1Z"/>
      <path class="cls-1" d="M24.54,21.38c-1.06,0-1.97-.23-2.74-.68-.77-.46-1.35-1.09-1.76-1.91-.41-.81-.62-1.76-.62-2.83s.21-2.02.62-2.83,1-1.46,1.76-1.92c.76-.46,1.68-.69,2.74-.69,1.28,0,2.33.32,3.15.96.82.64,1.33,1.54,1.52,2.7h-2.31c-.12-.56-.38-.99-.79-1.3s-.94-.46-1.6-.46c-.62,0-1.15.14-1.59.43-.44.29-.78.69-1.01,1.22-.24.53-.35,1.16-.35,1.89s.12,1.36.35,1.88.57.93,1.01,1.21c.44.29.97.43,1.59.43.66,0,1.19-.14,1.59-.43.4-.28.66-.69.78-1.22h2.31c-.19,1.11-.69,1.98-1.51,2.6-.82.62-1.86.94-3.14.94Z"/>
    </g>
  </g>
</svg>